<?xml version="1.0" standalone="no"?>
<!DOCTYPE svg PUBLIC "-//W3C//DTD SVG 20010904//EN"
 "http://www.w3.org/TR/2001/REC-SVG-20010904/DTD/svg10.dtd">
<svg version="1.0" xmlns="http://www.w3.org/2000/svg"
 width="768.000000pt" height="768.000000pt" viewBox="0 0 768.000000 768.000000"
 preserveAspectRatio="xMidYMid meet">

<g transform="translate(0.000000,768.000000) scale(0.100000,-0.100000)"
fill="#000000" stroke="none">
<path d="M2728 7563 c7 -3 16 -2 19 1 4 3 -2 6 -13 5 -11 0 -14 -3 -6 -6z"/>
<path d="M3157 7422 c-94 -86 -218 -172 -247 -172 -39 0 -60 -9 -54 -25 6 -15
-10 -22 -96 -40 -111 -23 -272 -37 -302 -26 -40 15 -45 47 -14 80 57 59 17 56
-60 -5 -60 -47 -151 -94 -182 -94 -23 1 -116 32 -176 60 -33 16 -66 44 -102
89 -30 35 -54 69 -54 73 0 4 -6 8 -14 8 -10 0 -15 -24 -19 -102 -7 -148 -32
-289 -54 -308 -10 -8 -32 -41 -48 -73 -17 -32 -48 -80 -70 -105 l-40 -46 34
20 c18 10 42 30 52 44 10 14 22 30 27 35 4 6 11 19 15 29 14 37 19 6 7 -44
-14 -58 -88 -148 -149 -180 -55 -29 -9 -24 74 8 55 22 75 36 100 69 48 67 74
112 61 107 -7 -3 -17 10 -24 29 -16 45 -16 47 12 47 29 0 35 19 28 88 -10 108
14 131 110 107 77 -19 118 -35 118 -45 0 -10 139 -31 175 -26 17 2 30 5 30 6
0 1 29 3 65 4 67 3 157 13 198 22 13 2 73 7 135 9 110 5 170 15 255 42 24 7
48 11 53 8 5 -4 9 -1 9 5 0 6 5 8 10 5 6 -4 16 -2 23 3 18 15 122 7 122 -10 0
-7 -8 -12 -19 -11 -10 0 -32 -5 -50 -13 -29 -12 -30 -13 -6 -14 14 0 48 7 75
15 28 9 68 18 90 20 22 2 101 11 175 20 74 8 178 20 230 26 84 10 341 6 460
-7 19 -2 150 -6 290 -8 140 -2 291 -9 335 -15 44 -6 118 -13 165 -16 94 -6
133 -15 235 -52 134 -48 174 -56 265 -49 252 20 237 20 257 -3 18 -22 42 -106
43 -153 0 -19 -10 -35 -34 -55 -19 -15 -32 -32 -28 -37 3 -6 7 -40 8 -76 1
-36 8 -94 14 -130 13 -62 17 -69 102 -156 78 -80 88 -94 88 -127 0 -19 4 -38
9 -41 5 -3 12 -21 15 -39 11 -60 222 -248 249 -221 3 3 44 6 91 7 l86 2 0 -35
c0 -39 27 -176 40 -201 5 -9 12 -33 15 -53 4 -20 11 -36 16 -36 5 0 9 -6 9
-12 0 -7 26 -51 58 -97 47 -69 67 -90 112 -114 64 -34 190 -133 190 -149 0 -5
20 -37 45 -70 25 -33 45 -65 45 -71 0 -6 2 -8 5 -5 3 2 -4 31 -15 64 -14 41
-21 88 -22 150 l-2 92 52 57 c56 61 104 138 141 224 18 43 22 65 17 102 -6 41
-3 51 15 68 28 26 99 50 170 56 71 7 84 -7 97 -99 10 -74 -4 -185 -33 -268
-24 -70 -19 -89 11 -44 70 103 122 277 110 368 -4 28 -18 77 -32 109 -28 67
-28 73 -11 91 7 7 18 25 24 40 16 37 55 60 100 60 l38 0 -33 16 c-19 9 -31 21
-28 29 3 7 1 13 -4 13 -12 0 8 56 26 71 8 6 14 18 14 26 0 9 18 56 41 105 22
50 38 92 36 95 -3 2 -32 -52 -66 -120 -74 -148 -126 -206 -214 -237 -31 -11
-63 -20 -72 -20 -9 0 -48 -17 -87 -37 -63 -34 -82 -38 -156 -42 -95 -4 -157
10 -172 39 -6 11 -21 31 -35 46 -14 15 -30 42 -37 60 -7 19 -17 33 -23 31 -12
-4 -59 -91 -68 -128 -13 -51 9 -92 69 -132 31 -20 67 -37 80 -37 13 0 32 -8
42 -18 13 -13 23 -16 34 -9 45 29 134 -83 125 -156 -6 -41 -52 -111 -68 -102
-5 4 -9 1 -9 -5 0 -6 -11 -15 -25 -20 -14 -5 -25 -16 -25 -23 0 -7 -9 -23 -20
-35 -24 -26 -84 -30 -115 -8 -25 17 -80 23 -117 12 -20 -6 -36 -3 -61 13 -41
25 -97 86 -97 105 0 8 -4 17 -9 20 -4 3 -11 24 -15 46 -3 22 -10 40 -15 40
-14 0 -22 50 -23 132 0 102 40 254 102 385 54 115 91 163 124 163 12 -1 48 2
81 5 60 6 60 6 35 -12 -42 -30 -88 -84 -130 -153 -57 -94 -53 -120 8 -53 104
114 142 129 233 97 31 -11 56 -14 75 -9 l29 8 -31 8 c-17 5 -39 17 -48 28 -17
19 -17 20 4 41 19 19 90 157 90 175 0 3 -5 3 -11 -1 -6 -3 -15 -1 -19 6 -5 8
-17 -1 -36 -29 -36 -51 -49 -56 -83 -32 -23 16 -34 18 -76 10 -72 -13 -86 -6
-79 41 5 33 3 40 -16 50 -13 7 -38 10 -58 6 -20 -3 -42 -1 -49 6 -18 14 -17
-4 1 -40 7 -15 16 -44 20 -65 7 -35 4 -41 -51 -105 -86 -98 -109 -131 -137
-202 -55 -135 -91 -178 -176 -204 l-54 -18 -28 34 c-15 18 -28 36 -28 39 0 4
-13 12 -30 19 -18 8 -30 20 -30 31 0 12 -7 19 -20 19 -23 0 -35 21 -44 77 -7
50 14 77 72 88 19 4 60 16 91 28 54 20 55 21 26 27 -16 3 -48 2 -70 -3 -56
-12 -168 -1 -219 24 -57 26 -121 82 -153 132 -20 32 -24 49 -20 80 10 75 59
117 137 117 44 -1 46 -2 90 -68 59 -87 109 -122 186 -129 89 -8 133 8 193 71
40 43 51 62 51 88 0 18 14 64 30 103 17 38 30 74 30 80 -1 18 -49 -69 -65
-116 -9 -25 -27 -57 -40 -69 -14 -13 -25 -31 -25 -40 0 -31 -46 -63 -98 -68
-43 -4 -57 1 -123 38 -41 23 -83 51 -94 62 l-20 20 43 -5 c23 -3 40 -1 37 3
-3 5 -42 29 -86 55 -77 44 -82 50 -112 113 -31 65 -32 70 -29 187 8 297 8 295
-8 305 -26 16 -30 -12 -7 -53 17 -30 19 -42 10 -56 -6 -10 -17 -38 -23 -62
-27 -101 -94 -129 -312 -132 -129 -1 -149 1 -203 22 -33 14 -66 31 -74 38 -20
20 -59 34 -106 39 -95 8 -150 17 -174 26 -14 5 -48 11 -76 13 -27 3 -106 10
-175 18 -69 7 -128 10 -131 5 -7 -11 -112 -5 -121 7 -5 6 -8 6 -8 -2 0 -20
-102 -26 -261 -14 -100 7 -158 16 -168 25 -9 7 -28 16 -43 20 -15 3 -33 12
-41 20 -12 12 -21 11 -63 -10 -45 -22 -80 -29 -244 -54 -30 -4 -86 -16 -125
-25 -130 -32 -302 -14 -319 33 -3 9 -9 23 -12 30 -3 6 1 12 9 12 8 0 20 7 27
15 7 8 24 15 39 15 32 0 94 37 86 50 -3 6 -13 10 -21 10 -13 0 -18 12 -15 33
3 17 -22 5 -62 -31z"/>
<path d="M7673 7400 c0 -25 2 -35 4 -22 2 12 2 32 0 45 -2 12 -4 2 -4 -23z"/>
<path d="M743 7396 c-40 -7 -75 -15 -79 -18 -15 -16 79 -20 190 -9 67 6 174
11 239 11 126 0 141 -4 286 -71 35 -17 65 -28 68 -26 7 7 -125 75 -192 99 -52
19 -85 22 -250 24 -116 2 -218 -2 -262 -10z"/>
<path d="M6178 7381 c-72 -46 -112 -107 -129 -196 -17 -94 16 -172 94 -222 72
-46 93 -47 182 -12 54 21 96 47 130 78 28 25 51 49 53 53 2 4 -25 20 -61 36
-35 16 -67 37 -70 46 -11 28 13 62 59 84 39 19 71 23 296 32 276 11 297 14
341 40 l30 18 -44 7 c-81 12 -144 9 -192 -10 -42 -16 -67 -17 -194 -12 -136 5
-151 4 -224 -19 -45 -14 -83 -32 -88 -42 -5 -9 -11 -41 -14 -71 -4 -35 -13
-61 -26 -75 -19 -19 -24 -19 -86 -7 -36 7 -68 11 -71 8 -3 -3 0 -15 6 -27 13
-24 66 -50 103 -50 34 0 52 -23 31 -41 -24 -20 -121 -12 -151 12 -19 17 -43
64 -43 86 0 10 9 25 19 32 15 11 17 19 10 38 -25 67 4 159 67 211 48 40 33 41
-28 3z"/>
<path d="M535 7315 l-30 -24 35 9 c19 5 41 17 49 25 27 27 -20 18 -54 -10z"/>
<path d="M7320 7251 c-7 -15 -7 -21 0 -21 12 0 25 28 17 36 -3 3 -10 -4 -17
-15z"/>
<path d="M7671 7244 c0 -11 3 -14 6 -6 3 7 2 16 -1 19 -3 4 -6 -2 -5 -13z"/>
<path d="M300 7241 c0 -6 5 -13 10 -16 6 -3 10 1 10 9 0 9 -4 16 -10 16 -5 0
-10 -4 -10 -9z"/>
<path d="M956 7210 c7 -7 24 -7 50 -1 l39 9 -49 1 c-34 1 -47 -2 -40 -9z"/>
<path d="M33 7193 c11 -17 63 -32 78 -23 19 12 10 18 -40 26 -30 5 -42 4 -38
-3z"/>
<path d="M390 7159 c0 -16 -5 -20 -20 -16 -25 6 -25 -5 -3 -74 20 -62 92 -214
98 -207 2 2 -9 38 -25 79 -16 40 -29 88 -29 104 0 28 0 29 14 11 8 -11 18 -16
22 -13 4 4 1 13 -5 19 -7 7 -12 19 -12 28 0 8 -5 32 -11 53 -11 40 -29 50 -29
16z"/>
<path d="M7300 7148 c0 -15 5 -30 10 -33 13 -8 13 25 0 45 -8 12 -10 9 -10
-12z"/>
<path d="M7430 7144 c0 -6 7 -19 15 -30 8 -10 14 -14 14 -9 0 6 -6 19 -14 29
-8 11 -15 15 -15 10z"/>
<path d="M76 7103 c-6 -14 -5 -15 5 -6 7 7 10 15 7 18 -3 3 -9 -2 -12 -12z"/>
<path d="M1122 7088 c-19 -19 -15 -27 21 -42 17 -7 44 -26 58 -42 34 -39 89
-163 89 -203 0 -19 6 -34 15 -37 8 -4 12 -10 9 -15 -11 -18 12 -8 41 17 l30
26 -29 -17 c-32 -19 -48 -10 -40 23 5 18 13 21 40 19 19 -1 34 -6 34 -10 0 -5
16 0 35 12 l35 20 17 -32 17 -32 7 47 c4 26 21 75 37 110 35 73 43 105 32 133
-6 18 -9 17 -29 -15 l-21 -35 0 37 c0 51 -17 57 -30 9 -11 -43 -64 -106 -79
-96 -6 3 -25 -2 -42 -10 -48 -25 -94 -13 -123 33 -28 43 -91 112 -103 112 -5
0 -14 -5 -21 -12z"/>
<path d="M7238 7021 c-40 -70 -113 -148 -153 -161 -76 -25 -182 -7 -198 34 -3
8 -15 20 -27 26 -18 10 -16 2 15 -60 20 -40 41 -83 46 -97 9 -23 11 -24 27
-11 9 9 51 27 92 40 70 24 78 29 123 89 27 35 59 77 72 92 24 28 50 97 37 97
-4 0 -19 -22 -34 -49z"/>
<path d="M3730 6899 l-45 -6 58 -1 c31 -1 57 0 57 2 0 9 -28 11 -70 5z"/>
<path d="M738 6879 c-12 -6 -18 -22 -17 -42 0 -18 -2 -66 -5 -108 -3 -42 0
-93 5 -114 7 -25 7 -40 0 -49 -8 -9 -1 -22 25 -47 20 -19 44 -51 55 -71 13
-25 26 -38 40 -38 11 0 35 -6 53 -14 49 -20 55 -64 19 -134 -36 -69 -107 -112
-185 -112 -109 0 -302 123 -496 317 -112 111 -142 136 -142 117 0 -3 13 -23
28 -43 16 -20 36 -49 45 -66 20 -37 77 -171 77 -180 0 -4 20 -25 45 -47 25
-22 45 -48 45 -58 0 -10 7 -20 14 -23 20 -8 39 -82 33 -126 -3 -20 -13 -61
-23 -91 -13 -39 -18 -80 -17 -138 2 -81 21 -144 88 -297 18 -42 25 -67 34
-126 9 -56 -3 -204 -20 -258 -6 -19 -27 -102 -47 -185 -32 -136 -35 -163 -33
-276 1 -69 7 -154 12 -190 13 -84 12 -262 -2 -420 -16 -171 -6 -363 31 -579
17 -99 35 -192 40 -206 6 -15 10 -38 10 -53 0 -15 14 -81 31 -147 78 -305 98
-506 63 -626 -19 -66 -89 -212 -121 -255 -13 -18 -43 -45 -66 -60 -23 -16 -44
-31 -47 -34 -3 -3 -25 -18 -50 -34 -46 -29 -130 -112 -130 -128 0 -5 -5 -6
-12 -2 -6 4 -8 3 -5 -3 4 -6 -2 -21 -12 -34 -21 -28 -33 -89 -16 -82 7 2 22
23 35 46 31 54 96 124 133 144 20 10 26 18 18 22 -16 10 35 61 60 61 28 0 23
-15 -14 -40 -17 -12 -23 -19 -12 -15 55 20 55 20 55 -24 0 -24 -10 -62 -24
-89 -63 -124 -69 -219 -20 -320 24 -49 54 -70 54 -37 0 8 5 15 11 15 6 0 9 -7
5 -15 -7 -20 -3 -19 79 11 84 31 186 49 275 48 80 -1 176 -40 220 -91 39 -44
42 -112 7 -146 -13 -12 -27 -34 -30 -48 -4 -14 -16 -37 -27 -51 -22 -28 -108
-83 -117 -74 -3 3 -8 25 -10 50 -5 40 -2 48 26 76 17 17 31 34 31 36 0 3 -61
4 -137 2 -112 -2 -137 -6 -140 -18 -4 -16 -91 -70 -112 -70 -8 0 -6 10 4 30
21 40 5 39 -56 -6 -65 -47 -147 -165 -137 -195 5 -14 21 3 61 64 54 83 92 94
61 18 -9 -23 -15 -44 -12 -46 2 -3 18 15 36 40 17 24 49 53 70 64 61 31 183
61 203 50 11 -6 20 -5 24 1 3 5 17 10 30 10 21 0 24 -4 23 -33 -1 -17 -1 -51
0 -75 2 -39 4 -42 21 -32 19 9 19 9 4 -21 -23 -47 -11 -43 27 8 24 33 54 56
96 77 86 43 184 161 184 221 0 35 -48 176 -67 197 -30 34 -87 52 -186 59 -97
6 -137 21 -109 38 11 7 10 9 -2 14 -50 19 -38 112 21 169 34 33 104 72 114 64
2 -2 29 -6 59 -9 l55 -7 -3 70 c-3 65 -2 71 24 95 45 42 80 32 229 -67 123
-82 162 -159 153 -302 -3 -58 -2 -66 13 -66 10 0 21 5 24 10 8 13 72 13 80 0
5 -8 14 -100 15 -157 0 -20 17 -15 23 7 4 15 14 20 42 20 41 0 79 -23 131 -79
28 -30 33 -41 28 -66 -12 -58 -46 -94 -120 -130 -39 -19 -76 -35 -83 -35 -25
0 -148 -70 -176 -100 l-30 -32 50 29 c28 15 71 38 96 50 46 23 207 73 234 73
8 0 19 8 24 19 9 16 17 17 62 10 54 -9 73 -18 152 -78 56 -41 83 -81 95 -137
6 -29 13 -39 27 -40 11 -1 32 -2 47 -3 69 -3 145 -117 143 -214 -1 -82 -11
-89 -119 -84 -50 3 -106 8 -124 12 -27 6 -32 11 -26 29 3 11 13 28 20 37 18
20 18 29 -1 29 -9 0 -18 -7 -22 -15 -3 -9 -19 -23 -35 -31 -24 -12 -36 -13
-64 -4 -30 10 -35 16 -30 34 3 11 -2 54 -11 95 -14 66 -21 80 -63 122 -84 84
-167 89 -308 16 -97 -49 -147 -98 -161 -159 -6 -24 -16 -57 -21 -74 -6 -17
-10 -44 -10 -61 0 -41 -50 -107 -102 -135 -36 -18 -58 -22 -139 -21 -117 1
-143 13 -201 89 -36 49 -42 64 -46 117 -3 45 -10 67 -25 81 -17 17 -19 28 -14
87 6 66 5 67 -20 74 -18 4 -34 -1 -60 -21 -19 -14 -32 -28 -30 -31 7 -6 70 27
79 41 13 18 9 -30 -8 -111 -15 -72 -15 -78 1 -90 12 -8 16 -20 11 -37 -5 -19
-2 -26 13 -31 10 -3 31 -25 47 -48 16 -23 36 -50 46 -60 10 -10 18 -29 18 -42
0 -16 4 -23 13 -19 20 7 40 -21 32 -46 -11 -36 -229 -190 -269 -190 -7 0 -21
-6 -32 -14 -14 -11 -16 -18 -8 -26 8 -8 21 -5 49 14 21 14 42 26 47 26 5 0 40
20 77 43 130 85 163 97 259 97 48 0 105 -5 127 -10 48 -11 77 -4 73 17 -2 9 3
18 10 20 16 6 123 -107 120 -127 -5 -23 -76 -39 -153 -34 -49 4 -102 -1 -175
-15 -58 -12 -124 -21 -146 -21 -23 0 -58 -7 -77 -15 -20 -8 -54 -15 -76 -15
-45 0 -62 -15 -28 -24 34 -9 143 -7 169 3 13 5 66 12 118 15 52 4 122 9 155
13 33 4 65 7 70 8 6 0 52 -5 103 -11 51 -7 100 -10 110 -8 9 2 24 0 32 -5 30
-20 -69 -112 -215 -201 l-50 -30 -145 4 c-180 6 -257 18 -388 62 -110 36 -133
41 -116 24 29 -29 307 -115 389 -120 123 -8 191 -2 275 23 47 14 93 28 102 32
21 8 25 -14 6 -33 -6 -6 -8 -15 -4 -19 4 -5 14 1 21 12 8 11 18 25 24 31 5 6
16 25 25 42 9 17 22 32 29 34 8 2 38 32 67 67 36 43 55 59 60 51 24 -38 76
141 66 225 -10 88 -92 245 -127 245 -5 0 -32 11 -61 25 -28 14 -62 25 -75 25
-13 0 -23 5 -23 10 0 6 4 10 8 10 5 0 16 16 25 35 11 23 24 35 38 35 16 0 19
4 14 20 -3 11 -3 29 0 41 6 18 13 20 48 17 23 -3 51 -8 62 -13 16 -6 18 -6 8
6 -17 17 -16 29 1 29 7 0 20 10 28 22 14 20 15 20 40 4 25 -16 25 -16 31 14 4
16 12 30 20 30 15 0 80 -66 131 -134 38 -51 49 -106 21 -106 -8 0 -15 -9 -15
-20 0 -32 -21 -24 -96 37 -94 76 -104 83 -68 43 17 -19 44 -53 60 -75 16 -22
43 -58 61 -79 18 -22 42 -65 54 -95 27 -72 21 -154 -23 -337 -5 -23 -33 -73
-61 -111 -29 -38 -60 -84 -70 -101 l-18 -32 24 0 c14 0 27 7 30 15 4 8 21 21
39 29 35 14 111 84 141 129 48 72 166 123 319 137 95 9 165 2 231 -25 15 -6
17 -4 12 18 -7 27 0 35 55 54 54 19 70 16 172 -31 154 -73 251 -96 413 -103
168 -7 273 5 420 48 103 29 117 31 215 26 58 -4 127 -13 155 -20 53 -15 86
-12 79 6 -3 9 46 12 183 13 194 1 423 29 447 54 8 9 1 11 -29 6 -22 -3 -71 -8
-110 -10 -38 -3 -136 -11 -218 -17 -115 -10 -185 -10 -320 0 -241 17 -469 7
-426 -20 28 -17 -55 -24 -291 -24 -303 0 -279 -4 -545 78 -69 21 -96 24 -198
21 -64 -2 -127 0 -138 4 -33 13 -208 -14 -282 -42 -37 -14 -80 -26 -96 -26
-32 0 -33 6 -46 180 -3 41 -8 83 -11 93 -6 21 1 21 86 2 76 -17 210 -19 262
-5 37 11 128 99 128 124 0 6 12 26 28 43 l27 32 64 -14 c35 -8 67 -18 70 -23
9 -14 55 -36 69 -34 6 2 12 -2 12 -8 0 -5 5 -10 12 -10 6 0 30 -8 52 -19 112
-51 289 -105 386 -117 19 -3 75 -14 123 -25 49 -11 98 -17 109 -13 14 4 18 2
14 -5 -4 -6 0 -11 11 -12 10 0 25 -2 33 -5 117 -33 408 -44 505 -18 28 7 57
12 65 11 34 -3 325 16 455 30 77 8 161 17 187 20 27 3 46 8 43 12 -2 5 15 14
38 21 23 6 66 23 95 36 29 13 80 33 113 44 34 12 72 28 85 36 13 9 27 13 33
10 5 -3 39 6 77 20 111 42 173 55 198 43 39 -20 83 -76 97 -124 15 -52 43 -74
120 -94 39 -11 52 -10 84 3 75 32 92 20 113 -74 21 -92 24 -154 9 -182 -12
-24 -16 -26 -38 -14 -74 38 -161 64 -234 70 -68 5 -94 3 -169 -18 -99 -28
-104 -27 -281 19 -120 31 -195 39 -255 27 l-45 -9 45 -6 c25 -3 86 -11 135
-18 74 -9 110 -21 203 -64 80 -38 112 -59 112 -71 0 -16 2 -15 23 3 35 33 132
73 177 73 74 0 268 -84 435 -189 50 -31 106 -64 125 -74 19 -9 51 -31 72 -48
28 -24 40 -29 53 -21 15 8 14 11 -11 19 -40 14 -131 98 -150 139 -9 19 -29 48
-44 64 -33 35 -79 171 -88 260 -16 149 12 249 97 346 99 114 117 145 99 174
-11 19 -10 24 10 40 30 25 85 40 145 40 30 0 46 4 42 10 -9 14 -89 13 -139 -2
-53 -16 -116 -79 -146 -146 -22 -48 -26 -52 -57 -52 -18 0 -42 -6 -53 -12 -14
-9 -25 -10 -38 -2 -24 14 -82 133 -82 169 0 79 84 176 186 214 88 34 103 34
198 12 49 -12 91 -20 93 -18 2 3 -26 26 -63 53 -90 66 -106 102 -63 145 19 19
29 21 95 16 57 -4 74 -2 78 9 3 8 9 14 13 13 22 -4 20 6 -12 64 -42 76 -43 99
-9 126 48 38 176 17 182 -31 2 -12 16 -36 32 -53 15 -16 33 -40 39 -52 22 -43
27 -23 14 55 -23 127 -20 189 10 252 40 85 92 139 164 172 103 46 193 32 193
-30 0 -15 4 -43 10 -61 7 -24 6 -39 -1 -48 -6 -7 -9 -22 -6 -33 7 -28 -32 -66
-77 -74 -50 -10 -102 -73 -136 -168 -21 -56 -27 -88 -23 -118 7 -49 23 -53 23
-6 0 41 17 56 28 26 7 -20 10 -18 27 20 22 48 102 121 164 149 24 10 38 21 33
25 -20 12 -71 -7 -103 -40 -18 -19 -39 -34 -46 -34 -7 0 -20 -11 -28 -24 -9
-13 -23 -27 -31 -30 -12 -5 -14 1 -8 32 10 60 49 119 87 131 18 6 55 34 82 61
49 49 51 50 95 44 101 -15 150 -54 150 -120 0 -23 -6 -47 -14 -53 -8 -7 -12
-21 -9 -32 10 -38 -23 -59 -91 -57 -87 3 -148 -32 -199 -114 -49 -78 -52 -100
-28 -172 12 -33 21 -67 21 -77 0 -12 18 -27 51 -43 61 -31 85 -33 99 -6 22 41
197 12 245 -40 10 -11 24 -20 31 -20 44 0 184 -290 159 -330 -8 -12 4 -70 13
-70 12 0 14 198 2 205 -13 8 -13 68 1 98 9 21 6 34 -20 82 -16 32 -28 62 -25
67 15 24 89 -6 147 -60 21 -20 27 -22 27 -10 0 43 -158 166 -244 189 -88 25
-263 2 -357 -47 -23 -12 -29 -11 -39 1 -7 8 -19 15 -26 15 -19 0 -44 53 -44
93 0 47 28 78 107 120 136 71 249 92 344 63 90 -28 212 -103 240 -150 10 -17
19 -29 20 -26 9 52 9 77 -1 147 -6 46 -19 103 -30 128 -19 44 -19 45 -1 45 11
0 22 7 25 16 8 22 8 24 -9 24 -7 0 -18 6 -22 13 -4 7 -34 35 -66 62 -65 56
-98 102 -101 143 -1 15 -7 38 -13 52 -6 14 -15 43 -20 65 -6 32 -12 40 -30 39
-12 0 -20 3 -17 7 2 4 -2 9 -8 11 -23 8 -16 314 10 426 22 96 79 231 131 306
16 24 32 55 36 68 4 12 16 40 27 62 12 24 25 83 33 155 8 64 18 146 24 181 21
144 23 228 6 330 -13 73 -15 124 -10 185 7 88 25 127 25 56 0 -29 7 -47 23
-63 13 -13 28 -30 33 -38 12 -20 84 -73 84 -62 0 4 -16 24 -36 43 -51 49 -79
101 -108 204 -21 73 -26 111 -26 210 -1 123 -45 417 -85 563 -10 34 -15 66
-11 70 9 8 37 -9 103 -63 47 -38 95 -117 118 -193 4 -13 9 -21 12 -18 3 2 -3
40 -13 83 -18 75 -44 123 -99 178 -11 11 -29 38 -40 60 -11 22 -23 42 -26 45
-3 3 -21 28 -40 55 l-34 50 0 164 c1 139 -1 160 -12 135 -7 -16 -13 -36 -13
-44 -1 -10 -4 -9 -10 5 -13 32 -25 -50 -13 -90 7 -21 7 -38 0 -50 -18 -33 -1
-279 31 -450 35 -184 62 -383 64 -472 1 -34 4 -60 7 -58 3 1 6 -25 5 -58 0
-34 3 -72 7 -83 4 -12 3 -26 -2 -31 -6 -6 -9 -81 -7 -184 6 -494 4 -537 -39
-739 -20 -92 -78 -256 -103 -288 -10 -12 -21 -37 -25 -55 -3 -18 -10 -41 -14
-52 -16 -38 -55 -193 -79 -318 -6 -27 -11 -111 -11 -186 -2 -146 17 -269 45
-292 8 -6 14 -19 14 -29 0 -9 11 -29 25 -44 14 -15 37 -51 52 -79 29 -57 28
-53 38 -114 l7 -42 -33 9 c-19 6 -34 10 -35 10 -1 0 -13 11 -27 24 -16 15 -31
44 -37 73 -14 61 -32 103 -45 103 -6 0 -15 15 -20 32 -6 18 -19 37 -30 43 -42
22 -139 123 -184 190 -59 88 -75 127 -67 162 11 44 95 261 122 316 23 45 63
149 85 222 10 36 119 453 124 475 12 62 25 169 30 240 3 47 9 125 14 175 5 55
5 100 -1 115 -5 14 -7 38 -4 55 3 16 1 37 -4 45 -8 11 -10 -2 -9 -45 1 -80
-11 -241 -22 -285 -5 -21 -6 15 -2 90 6 129 -3 164 -12 49 -3 -35 -8 -95 -11
-134 -3 -38 -11 -83 -18 -100 -14 -34 -33 -128 -39 -195 l-5 -45 14 30 14 30
-3 -35 c-1 -24 -6 -34 -16 -32 -10 2 -12 -4 -8 -20 8 -29 -44 -210 -83 -292
-16 -33 -46 -110 -66 -171 -33 -100 -64 -160 -64 -127 0 7 -4 12 -10 12 -5 0
-10 -7 -10 -15 0 -8 -5 -15 -11 -15 -5 0 -8 -4 -4 -9 3 -6 -1 -13 -8 -18 -7
-4 -21 -26 -31 -48 -48 -105 -78 -159 -109 -198 -19 -23 -44 -60 -57 -82 -38
-63 -119 -175 -169 -232 -75 -85 -106 -123 -109 -134 -2 -5 -41 -37 -85 -70
-82 -60 -116 -103 -117 -146 0 -13 -5 -23 -10 -23 -6 0 -15 -11 -22 -24 -6
-14 -37 -45 -69 -70 -33 -25 -59 -53 -59 -61 0 -8 -14 -27 -31 -42 -17 -16
-42 -38 -56 -51 -13 -12 -43 -32 -66 -43 -41 -21 -117 -69 -127 -79 -3 -3 -30
-23 -60 -45 -30 -22 -85 -64 -122 -95 -37 -30 -102 -73 -145 -95 -43 -22 -89
-49 -103 -61 -26 -22 -128 -65 -305 -129 -55 -20 -118 -45 -140 -55 -49 -23
-102 -35 -225 -49 -52 -7 -124 -16 -160 -21 -128 -18 -567 -42 -690 -37 -69 2
-201 17 -295 32 -93 15 -183 28 -198 28 -18 0 -24 3 -16 8 9 5 4 10 -17 14
-286 67 -399 100 -444 129 -20 13 -56 27 -80 31 -48 8 -151 57 -186 90 -12 11
-52 38 -88 59 -36 21 -71 45 -77 52 -22 27 -162 116 -196 126 -48 13 -155 106
-165 143 -4 18 -20 38 -37 48 -16 9 -42 31 -58 49 -15 18 -53 52 -83 76 -31
25 -65 63 -77 87 -13 24 -40 56 -60 72 -55 40 -103 94 -109 123 -14 60 -40
128 -66 168 -15 24 -28 48 -28 53 0 6 -13 25 -29 42 -69 75 -79 89 -91 117 -7
17 -16 30 -20 30 -4 0 -16 22 -26 50 -10 27 -22 50 -26 50 -4 0 -8 6 -8 14 0
16 -14 43 -53 103 -15 24 -27 45 -27 49 0 6 -26 34 -33 34 -11 0 0 -38 21 -71
27 -44 28 -55 3 -62 -15 -4 -19 0 -16 14 2 12 -2 19 -11 19 -8 0 -14 10 -14
25 0 14 -6 25 -12 25 -16 0 -96 163 -138 280 -47 128 -92 304 -74 290 8 -7 14
-17 14 -23 0 -31 53 -176 62 -171 12 8 3 105 -12 132 -10 19 -55 219 -65 297
-4 28 -13 64 -20 82 -8 17 -18 71 -24 120 -6 48 -16 104 -21 123 -6 19 -13 58
-16 85 -3 28 -7 59 -9 70 -2 11 -4 25 -4 32 -1 7 -7 10 -15 7 -8 -3 -15 4 -18
19 -6 30 -2 198 12 477 11 239 12 275 6 269 -2 -2 -12 -91 -20 -198 -9 -107
-19 -198 -22 -203 -9 -14 -24 -125 -29 -218 -3 -47 -8 -96 -11 -108 -3 -13 0
-29 5 -36 5 -6 11 -72 12 -146 2 -152 18 -285 49 -410 65 -264 139 -537 150
-559 20 -38 91 -221 106 -271 9 -30 25 -72 35 -92 30 -58 25 -96 -18 -147 -63
-74 -126 -131 -173 -156 -50 -27 -100 -69 -100 -84 0 -5 -8 -16 -17 -23 -26
-19 -39 -48 -48 -98 -9 -55 -33 -119 -53 -142 -10 -12 -29 -18 -54 -18 -36 0
-40 3 -58 46 -11 25 -20 56 -20 69 0 12 23 68 50 123 28 55 50 105 50 111 0 6
4 11 9 11 5 0 17 21 27 48 10 26 22 50 27 53 5 4 7 11 4 16 -4 6 -2 37 3 70
23 143 26 415 5 513 -7 36 -17 83 -20 105 -4 22 -22 90 -40 150 -43 137 -56
212 -101 550 -35 267 -36 272 -28 500 9 281 9 272 -3 425 -12 154 -3 230 71
584 21 97 25 136 21 220 -7 128 -8 132 -61 301 -62 200 -62 199 -27 243 25 31
42 61 48 82 0 3 8 19 18 37 13 25 25 33 59 38 24 4 49 12 56 18 9 7 16 7 24
-1 7 -7 19 -12 28 -12 9 0 27 -11 39 -24 20 -21 22 -31 16 -63 -17 -90 -10
-213 19 -319 16 -62 35 -90 81 -127 76 -60 101 -163 70 -292 -8 -32 -12 -61
-10 -63 2 -3 15 20 28 49 26 60 105 143 187 199 28 19 67 47 86 62 19 15 39
28 43 30 24 10 103 133 126 198 15 41 36 100 47 130 11 30 21 83 23 118 4 76
22 132 41 132 35 0 164 -45 164 -57 0 -18 14 -16 58 7 20 11 38 16 40 11 5
-14 -74 -137 -143 -221 -136 -168 -262 -356 -332 -495 -151 -301 -222 -508
-252 -740 -7 -49 -18 -115 -26 -145 -11 -41 -13 -101 -10 -240 3 -102 7 -201
9 -220 2 -19 4 -51 5 -70 1 -25 4 -31 10 -20 5 8 11 94 15 190 9 264 48 503
122 746 49 163 84 245 178 423 119 224 210 365 365 566 70 92 285 302 391 385
250 193 578 377 827 464 403 140 844 191 1303 151 226 -20 505 -83 702 -159
136 -52 366 -159 491 -229 275 -153 598 -433 819 -710 106 -133 137 -184 238
-382 181 -360 270 -721 314 -1285 15 -186 13 -246 -13 -475 -21 -175 -10 -208
24 -77 33 127 54 351 58 595 2 158 7 241 14 248 18 18 5 94 -63 349 -66 251
-98 339 -193 535 -150 309 -177 358 -249 445 -39 47 -88 112 -109 145 -36 57
-424 455 -443 455 -5 0 -13 6 -17 14 -4 7 -25 19 -45 25 -48 16 -361 205 -418
253 -9 7 -33 34 -54 60 -46 57 -83 81 -173 112 -37 13 -97 37 -133 54 -98 45
-197 73 -275 78 -95 6 -95 6 -95 16 0 9 -69 2 -79 -8 -3 -3 1 -10 9 -15 11 -8
4 -9 -25 -5 -291 40 -367 46 -598 46 -195 0 -265 -4 -360 -20 -65 -11 -146
-22 -180 -24 -56 -3 -170 -23 -267 -46 -55 -13 -124 -40 -140 -55 -8 -7 -68
-31 -132 -54 -192 -66 -270 -106 -565 -294 -45 -28 -148 -106 -228 -172 -167
-138 -231 -185 -251 -185 -19 0 -17 20 4 44 34 39 68 186 43 186 -12 0 1 56
22 96 9 18 45 53 79 79 138 102 202 184 196 248 -4 44 -20 37 -35 -17 -15 -51
-64 -97 -148 -139 -69 -34 -129 -42 -182 -23 -24 8 -43 11 -43 6 0 -6 -14 -10
-31 -10 -31 0 -31 -1 24 -37 64 -42 82 -72 91 -156 l6 -59 -42 -39 c-24 -21
-51 -39 -60 -39 -10 0 -18 -4 -18 -10 0 -15 -26 -12 -40 4 -6 8 -21 16 -33 18
-18 2 -21 9 -19 31 2 21 -2 30 -16 34 -10 2 -23 16 -28 31 -9 27 -10 27 -32
-21 -12 -26 -26 -47 -31 -47 -25 0 -68 52 -98 119 -77 170 -93 197 -158 261
-44 43 -68 61 -75 54 -7 -7 1 -22 23 -46 19 -20 48 -63 66 -95 17 -32 43 -76
57 -98 42 -68 64 -119 54 -129 -6 -6 -15 -4 -25 4 -19 16 -19 6 -1 -72 17 -69
22 -78 45 -78 14 0 21 -13 30 -57 23 -114 8 -190 -62 -330 -26 -51 -117 -141
-171 -170 -36 -18 -109 -13 -135 11 -15 14 -16 25 -9 86 11 96 40 166 98 246
28 37 50 71 50 77 0 12 -38 -19 -59 -48 -8 -11 -32 -36 -52 -55 -46 -42 -55
-66 -64 -158 -6 -58 -12 -75 -34 -96 -15 -14 -40 -28 -56 -31 -25 -5 -36 0
-66 29 -31 31 -38 47 -53 118 -24 124 -23 134 28 182 73 68 113 96 135 96 34
0 73 25 120 75 l44 48 -6 101 c-6 121 -14 143 -66 191 l-40 38 27 20 c15 11
31 24 35 28 12 10 -67 55 -137 78 -31 10 -66 27 -77 37 -29 26 -52 118 -53
211 -1 46 -1 83 -1 83 0 0 -8 -5 -17 -11z m4032 -156 c47 -17 73 -33 66 -40
-6 -7 -236 68 -236 77 0 10 105 -13 170 -37z m-4070 -2934 c0 -5 -4 -9 -10 -9
-5 0 -10 7 -10 16 0 8 5 12 10 9 6 -3 10 -10 10 -16z m4 -109 c4 -54 3 -79 -3
-70 -7 12 -16 122 -12 154 3 27 10 -9 15 -84z m15 -145 c1 -17 -1 -17 -9 -5
-5 8 -9 26 -9 40 0 23 1 23 9 5 5 -11 9 -29 9 -40z m19 -125 c1 -23 0 -23 -8
-5 -5 11 -8 34 -8 50 0 29 0 29 8 5 4 -14 8 -36 8 -50z m6298 53 c-3 -10 -10
-45 -15 -78 -6 -32 -16 -64 -22 -70 -8 -7 -10 -4 -6 10 3 11 8 38 11 60 12 76
18 95 27 95 6 0 8 -8 5 -17z m-1476 -2395 c0 -31 48 -130 70 -143 16 -10 11
-68 -8 -92 -20 -26 -182 -103 -215 -103 -13 0 -30 6 -39 13 -17 14 -41 136
-31 164 18 51 90 137 138 164 67 39 85 38 85 -3z m-4155 -329 c53 -28 60 -29
70 -15 11 14 13 14 28 -2 23 -26 67 -131 67 -161 0 -15 -7 -37 -16 -50 -20
-29 -102 -81 -126 -81 -29 0 -73 51 -103 118 -26 60 -27 75 -10 130 6 18 4 22
-14 22 -18 0 -20 4 -15 28 4 15 9 30 11 35 9 15 52 6 108 -24z m2075 -323 c0
-3 -4 -8 -10 -11 -5 -3 -10 -1 -10 4 0 6 5 11 10 11 6 0 10 -2 10 -4z m2346
-234 c-12 -11 -46 12 -46 30 0 21 0 21 25 -2 14 -13 23 -25 21 -28z"/>
<path d="M1963 6863 c8 -10 27 -43 41 -73 27 -61 53 -97 61 -88 3 3 -8 27 -24
54 -17 26 -31 53 -31 58 -1 13 -46 66 -56 66 -4 0 0 -8 9 -17z"/>
<path d="M4426 6815 c4 -8 12 -15 20 -15 19 0 18 16 -2 24 -22 9 -24 8 -18 -9z"/>
<path d="M1020 6708 c0 -25 -6 -32 -40 -45 -46 -18 -44 -33 6 -33 19 0 46 -7
59 -16 24 -16 25 -15 25 5 0 11 6 21 14 21 7 0 19 7 26 15 7 8 21 15 31 15 12
0 20 8 21 20 0 11 1 25 2 30 1 7 -29 12 -71 14 l-73 3 0 -29z"/>
<path d="M7276 6582 l-19 -27 24 22 c12 12 21 24 18 27 -2 2 -13 -8 -23 -22z"/>
<path d="M42 6525 c0 -16 2 -22 5 -12 2 9 2 23 0 30 -3 6 -5 -1 -5 -18z"/>
<path d="M6230 6500 c-13 -9 -13 -10 0 -10 8 0 22 5 30 10 13 9 13 10 0 10 -8
0 -22 -5 -30 -10z"/>
<path d="M375 6450 c3 -5 10 -10 16 -10 5 0 9 5 9 10 0 6 -7 10 -16 10 -8 0
-12 -4 -9 -10z"/>
<path d="M7542 6367 c-23 -25 -28 -37 -13 -37 10 0 45 50 39 56 -3 2 -14 -6
-26 -19z"/>
<path d="M6605 5920 c3 -5 8 -10 11 -10 2 0 4 5 4 10 0 6 -5 10 -11 10 -5 0
-7 -4 -4 -10z"/>
<path d="M6769 5910 c-24 -20 -24 -20 -4 -36 11 -8 28 -20 38 -25 16 -9 17 -7
10 18 -3 15 -6 36 -5 46 1 22 -10 22 -39 -3z"/>
<path d="M20 5846 c0 -52 13 -88 35 -96 38 -14 176 -117 232 -172 35 -34 53
-46 53 -35 0 22 -82 107 -103 107 -8 0 -31 18 -50 41 -20 22 -55 55 -79 72
-51 37 -58 45 -58 73 0 12 -7 24 -15 28 -11 4 -15 -1 -15 -18z"/>
<path d="M7652 5818 c-21 -27 -42 -78 -42 -102 0 -13 -15 -54 -34 -90 -19 -36
-30 -66 -24 -66 14 0 -16 -44 -57 -83 -45 -43 -66 -97 -72 -187 -4 -56 -1 -85
11 -112 9 -21 18 -38 21 -38 2 0 1 31 -2 70 -7 88 13 146 67 193 21 18 41 44
45 59 4 14 17 35 29 45 21 19 31 53 65 223 6 30 14 65 17 78 7 24 -7 30 -24
10z"/>
<path d="M7450 5640 c-39 -21 -97 -77 -88 -86 8 -8 100 56 122 84 20 27 13 27
-34 2z"/>
<path d="M7285 5489 c-4 -6 -5 -12 -2 -15 2 -3 7 2 10 11 7 17 1 20 -8 4z"/>
<path d="M2444 5330 c-173 -23 -395 -147 -435 -243 -11 -26 -10 -31 7 -44 24
-18 46 -12 164 42 135 61 206 83 328 102 121 18 152 32 152 69 0 44 -17 62
-70 73 -56 12 -58 12 -146 1z"/>
<path d="M5116 5309 c-22 -5 -48 -17 -58 -26 -19 -17 -25 -68 -9 -77 5 -3 82
-24 171 -47 89 -22 215 -60 281 -85 65 -24 125 -44 133 -44 26 0 39 38 26 70
-26 63 -243 182 -376 205 -90 16 -113 17 -168 4z"/>
<path d="M7475 5090 c19 -35 47 -70 56 -70 5 0 9 9 9 20 0 11 -5 20 -12 20 -6
0 -23 10 -36 23 -14 12 -22 15 -17 7z"/>
<path d="M374 5079 c-3 -6 -1 -16 5 -22 8 -8 11 -5 11 11 0 24 -5 28 -16 11z"/>
<path d="M7580 5074 c0 -8 5 -12 10 -9 6 3 10 10 10 16 0 5 -4 9 -10 9 -5 0
-10 -7 -10 -16z"/>
<path d="M335 4970 c-3 -11 -10 -20 -15 -20 -4 0 -10 -8 -13 -17 -3 -10 -14
-46 -25 -80 -11 -35 -17 -63 -12 -63 8 0 74 130 85 167 7 27 -11 40 -20 13z"/>
<path d="M2395 4930 c-128 -14 -339 -83 -427 -139 -23 -15 -66 -42 -95 -60
-63 -39 -185 -165 -213 -221 -30 -58 -53 -157 -46 -195 4 -19 24 -52 47 -77
23 -23 37 -36 32 -28 -11 18 -11 19 12 130 31 151 185 325 371 417 91 46 214
91 264 97 219 29 341 2 476 -108 96 -77 239 -331 309 -548 21 -64 42 -115 46
-112 4 2 15 24 25 49 16 42 16 49 0 116 -10 38 -37 116 -62 171 -103 239 -272
423 -437 477 -58 19 -183 42 -217 39 -8 0 -46 -4 -85 -8z"/>
<path d="M6931 4903 c0 -4 4 -17 9 -28 8 -19 9 -19 9 2 1 12 -3 25 -9 28 -5 3
-10 3 -9 -2z"/>
<path d="M5070 4882 c-178 -47 -272 -131 -426 -379 -32 -51 -84 -196 -100
-276 -14 -72 -15 -94 -5 -127 6 -22 15 -40 19 -40 22 1 33 22 38 76 8 78 31
164 66 242 15 35 28 69 28 74 0 6 25 48 56 94 70 104 167 188 282 245 78 38
91 42 156 40 86 -2 128 -12 226 -54 149 -62 320 -177 413 -276 31 -34 57 -63
57 -65 0 -2 14 -19 31 -37 55 -59 108 -200 86 -229 -10 -12 -8 -12 13 1 48 31
65 66 65 132 0 81 -29 131 -128 223 -164 153 -376 272 -603 337 -121 36 -193
40 -274 19z"/>
<path d="M6980 4731 c0 -5 5 -13 10 -16 6 -3 10 -2 10 4 0 5 -4 13 -10 16 -5
3 -10 2 -10 -4z"/>
<path d="M701 4634 c0 -11 3 -14 6 -6 3 7 2 16 -1 19 -3 4 -6 -2 -5 -13z"/>
<path d="M37 4186 c-10 -24 0 -167 11 -178 9 -9 12 12 12 84 0 88 -10 129 -23
94z"/>
<path d="M700 4118 c0 -36 4 -35 14 5 4 16 2 27 -4 27 -5 0 -10 -14 -10 -32z"/>
<path d="M696 3979 c-4 -9 -6 -34 -4 -55 3 -37 3 -37 14 -14 5 14 7 39 4 55
-5 23 -9 26 -14 14z"/>
<path d="M58 3804 c-5 -4 -8 -16 -8 -28 0 -14 3 -17 11 -9 6 6 9 19 7 28 -1 9
-6 13 -10 9z"/>
<path d="M932 3780 c0 -19 2 -27 5 -17 2 9 2 25 0 35 -3 9 -5 1 -5 -18z"/>
<path d="M941 3724 c0 -11 3 -14 6 -6 3 7 2 16 -1 19 -3 4 -6 -2 -5 -13z"/>
<path d="M962 3600 c0 -14 2 -19 5 -12 2 6 2 18 0 25 -3 6 -5 1 -5 -13z"/>
<path d="M50 3561 c11 -41 20 -51 20 -25 0 11 -7 29 -15 40 -13 17 -14 16 -5
-15z"/>
<path d="M111 3340 c0 -14 8 -43 19 -65 l20 -40 -6 35 c-4 19 -12 49 -19 65
-13 29 -13 29 -14 5z"/>
<path d="M7602 3173 c-27 -88 -21 -94 8 -8 12 36 20 68 17 71 -2 3 -14 -25
-25 -63z"/>
<path d="M191 3090 c27 -92 45 -180 78 -365 8 -46 5 -105 -6 -105 -2 0 -12 7
-21 16 -23 23 -26 4 -8 -48 24 -72 40 -162 33 -190 -4 -14 -25 -50 -47 -79
-22 -29 -38 -54 -37 -56 2 -1 22 7 45 19 29 14 49 33 63 61 19 36 53 209 66
333 6 54 -16 231 -46 379 l-19 90 5 -145 c2 -79 2 -142 -1 -139 -3 3 -22 75
-42 160 -37 159 -54 203 -49 127 1 -23 1 -34 -2 -23 -2 11 -12 31 -23 45 -15
20 -13 7 11 -80z m123 -613 c-3 -28 -10 -56 -16 -62 -7 -7 -8 -3 -4 11 4 12 7
43 8 68 0 25 4 43 8 41 5 -3 6 -29 4 -58z"/>
<path d="M4007 2930 c-64 -21 -152 -46 -194 -56 -87 -19 -134 -13 -236 33
l-60 27 -17 -22 c-44 -54 -28 -199 27 -242 59 -46 259 -73 453 -61 177 12 216
40 227 162 8 82 -4 147 -32 175 -13 13 -30 24 -37 23 -7 0 -66 -18 -131 -39z"/>
<path d="M7496 2918 c-24 -68 -28 -88 -17 -88 10 0 25 42 35 98 8 44 1 40 -18
-10z"/>
<path d="M7483 2788 c-72 -114 -152 -292 -138 -306 6 -7 35 18 35 31 0 11 42
98 63 132 42 67 57 98 71 145 9 29 14 55 12 57 -2 2 -22 -24 -43 -59z"/>
<path d="M7435 2450 c-43 -44 -55 -49 -56 -22 0 12 -3 10 -11 -8 -16 -41 16
-299 40 -314 4 -2 7 42 8 97 1 80 6 115 23 162 21 55 42 125 37 125 -1 0 -20
-18 -41 -40z"/>
<path d="M7518 2098 c-9 -7 -24 -37 -34 -66 -20 -64 -30 -72 -46 -35 -8 21
-12 24 -15 11 -5 -18 20 -73 38 -83 6 -4 13 2 16 14 8 32 20 25 31 -16 l10
-38 1 40 c1 22 9 71 20 107 10 37 15 65 10 63 -4 -3 -9 0 -11 5 -2 7 -9 6 -20
-2z"/>
<path d="M3285 1984 c-88 -7 -191 -17 -230 -23 -38 -6 -114 -11 -167 -11 -117
0 -148 -10 -148 -45 0 -14 9 -34 19 -44 28 -28 159 -67 266 -80 296 -35 1112
-55 1338 -32 51 6 143 15 206 21 208 22 288 61 266 130 -12 36 -60 51 -199 61
-72 5 -216 16 -320 24 -230 18 -800 18 -1031 -1z"/>
<path d="M1550 1936 c0 -4 11 -21 25 -38 14 -16 25 -26 25 -21 -1 11 -50 70
-50 59z"/>
<path d="M915 1825 c11 -8 26 -19 33 -25 17 -15 70 -30 103 -30 16 0 44 -14
69 -35 23 -19 44 -35 46 -35 12 0 0 21 -28 49 -49 48 -143 91 -197 91 -43 -1
-45 -2 -26 -15z"/>
<path d="M40 1761 c-6 -12 -7 -21 -3 -21 4 0 2 -4 -6 -9 -13 -9 -7 -31 8 -31
10 0 25 69 17 77 -2 3 -9 -5 -16 -16z"/>
<path d="M89 1463 c16 -27 51 -69 51 -61 0 13 -42 78 -51 78 -6 0 -6 -7 0 -17z"/>
<path d="M7380 1356 c0 -8 4 -16 8 -18 5 -1 31 -46 57 -98 27 -52 57 -106 67
-119 11 -15 18 -41 18 -70 0 -67 12 -151 21 -151 4 0 10 24 14 53 5 42 1 67
-19 130 -30 87 -29 94 40 184 34 45 45 78 22 71 -7 -3 -13 -14 -14 -25 -1 -25
-12 -43 -26 -43 -5 0 -23 -11 -40 -25 -16 -14 -33 -25 -38 -25 -5 0 -28 32
-51 70 -43 74 -59 91 -59 66z"/>
<path d="M185 1339 c-37 -18 -40 -22 -40 -61 0 -24 -3 -61 -7 -83 -6 -33 -6
-36 4 -17 6 12 15 22 20 22 5 0 16 15 24 33 8 17 24 44 36 59 16 20 19 32 12
47 -9 19 -10 19 -49 0z"/>
<path d="M6694 1211 c3 -5 16 -11 28 -14 22 -6 22 -5 4 8 -22 17 -40 20 -32 6z"/>
<path d="M136 1113 c-16 -40 -36 -158 -36 -207 0 -30 7 -73 15 -96 8 -24 17
-66 19 -94 2 -28 14 -70 26 -94 11 -23 18 -47 15 -52 -3 -6 -1 -10 4 -10 6 0
11 -7 11 -17 0 -38 102 -218 144 -252 26 -21 18 2 -14 45 -33 43 -37 56 -16
48 8 -3 17 -1 20 5 4 6 -5 13 -21 17 -42 10 -50 19 -77 92 -77 208 -113 442
-87 565 12 57 10 86 -3 50z"/>
<path d="M6575 1080 c-4 -12 -5 -24 -2 -27 3 -2 8 5 12 17 4 12 5 24 2 27 -3
2 -8 -5 -12 -17z"/>
<path d="M338 1030 c-11 -36 -10 -160 1 -160 12 0 17 71 11 135 -4 41 -6 46
-12 25z"/>
<path d="M6150 1041 c-28 -5 -37 -12 -45 -37 -5 -17 -21 -48 -35 -70 -31 -47
-52 -95 -46 -101 2 -3 11 8 19 24 24 44 78 91 126 108 24 8 47 12 52 9 5 -3 9
0 9 5 0 21 27 10 68 -27 36 -34 42 -45 42 -80 l0 -41 -34 6 c-19 3 -57 0 -85
-7 -83 -20 -167 -125 -184 -232 -3 -21 -1 -40 4 -43 5 -4 9 10 9 31 0 49 47
140 89 173 28 21 47 26 107 29 l74 4 36 -38 c20 -22 50 -54 68 -73 17 -18 60
-47 96 -63 36 -16 75 -39 88 -51 30 -28 127 -58 141 -44 8 8 23 8 50 1 30 -8
38 -8 35 1 -7 18 -50 35 -89 35 -19 0 -36 4 -39 9 -3 5 -23 12 -43 16 -79 14
-163 65 -163 99 0 29 -40 96 -57 96 -21 0 -42 29 -43 60 -1 58 -27 105 -89
158 -64 55 -77 58 -161 43z m277 -293 c-3 -8 -6 -5 -6 6 -1 11 2 17 5 13 3 -3
4 -12 1 -19z"/>
<path d="M6896 973 c9 -37 14 -44 25 -38 5 4 2 19 -6 36 -19 37 -27 37 -19 2z"/>
<path d="M6570 903 c0 -12 5 -25 10 -28 13 -8 13 15 0 35 -8 12 -10 11 -10 -7z"/>
<path d="M6882 868 c-7 -7 -12 -18 -12 -25 0 -25 -40 -93 -55 -93 -7 0 -20
-12 -27 -27 -12 -26 -19 -28 -76 -31 -35 -2 -85 3 -111 11 -46 13 -47 13 -46
-7 2 -31 62 -47 172 -47 l92 0 82 -74 c46 -41 86 -75 90 -75 9 0 49 -64 49
-79 0 -9 -5 -9 -21 -1 -19 10 -20 10 -10 -9 18 -32 14 -44 -13 -37 -18 4 -25
1 -29 -14 -3 -13 -14 -20 -29 -20 -12 0 -30 -5 -38 -10 -9 -6 16 -8 73 -7 l87
2 0 32 c0 26 4 33 20 33 11 0 20 3 20 6 0 13 -118 142 -163 179 -74 60 -89 91
-77 155 6 29 17 58 25 64 17 12 33 86 18 86 -5 0 -14 -5 -21 -12z"/>
<path d="M543 736 c-32 -30 -55 -57 -52 -60 3 -3 32 21 64 54 74 75 66 79 -12
6z"/>
<path d="M5986 775 c-9 -26 -7 -32 5 -12 6 10 9 21 6 23 -2 3 -7 -2 -11 -11z"/>
<path d="M348 745 c-8 -13 10 -127 23 -139 6 -6 9 -4 9 5 0 9 9 42 19 75 23
67 20 85 -4 29 -17 -43 -24 -41 -34 7 -4 18 -10 28 -13 23z"/>
<path d="M5932 684 c-14 -73 -7 -159 9 -132 6 9 9 9 9 1 0 -6 -4 -14 -9 -17
-10 -7 -20 -53 -13 -60 2 -3 5 -36 6 -73 1 -44 8 -79 19 -98 14 -24 17 -26 11
-6 -5 18 -3 22 7 16 9 -6 11 -4 6 8 -3 9 -9 60 -13 115 -5 81 -4 104 10 130
13 25 14 32 3 32 -10 0 -12 14 -9 60 3 38 1 60 -6 60 -6 0 -12 8 -14 18 -2 9
-9 -15 -16 -54z"/>
<path d="M7505 674 c-8 -20 -15 -39 -15 -41 0 -10 -81 -107 -101 -121 -25 -18
-31 -12 -32 32 -1 50 -12 33 -27 -44 -7 -36 -21 -79 -31 -96 -11 -17 -19 -41
-19 -52 0 -23 -35 -52 -62 -52 -31 0 -27 -15 5 -17 38 -3 62 17 87 72 24 53
100 157 158 218 36 37 53 47 78 47 26 0 34 -5 37 -22 3 -15 5 -10 6 14 1 26
-6 45 -25 67 -14 17 -30 31 -35 31 -5 0 -16 -16 -24 -36z m25 -34 c0 -5 -4
-10 -10 -10 -5 0 -10 5 -10 10 0 6 5 10 10 10 6 0 10 -4 10 -10z"/>
<path d="M72 574 c-12 -8 -22 -21 -22 -29 0 -9 9 -6 27 11 30 28 27 41 -5 18z"/>
<path d="M6256 551 c-4 -12 -9 -41 -10 -62 -3 -57 -21 -71 -79 -60 -61 11 -95
35 -115 79 -21 49 -29 18 -12 -47 17 -63 87 -211 100 -211 6 0 22 -24 35 -52
24 -55 102 -135 159 -165 35 -18 160 -24 162 -8 1 6 -34 18 -78 27 -103 22
-168 53 -168 80 0 10 -5 28 -10 39 -12 22 -4 24 36 8 l28 -10 -19 22 c-29 32
-72 52 -78 36 -8 -21 -40 20 -58 73 -17 53 -15 63 10 52 29 -13 259 -8 273 6
10 10 2 11 -44 6 -61 -7 -148 10 -148 29 0 6 12 21 27 33 24 19 26 24 16 45
-7 13 -14 42 -15 64 -3 35 -4 37 -12 16z"/>
<path d="M7580 551 c0 -10 -16 -42 -35 -70 -37 -54 -28 -71 14 -27 22 23 43
116 27 116 -3 0 -6 -8 -6 -19z"/>
<path d="M386 495 c4 -8 8 -15 10 -15 2 0 4 7 4 15 0 8 -4 15 -10 15 -5 0 -7
-7 -4 -15z"/>
<path d="M1756 455 c-3 -8 -1 -15 4 -15 6 0 10 7 10 15 0 8 -2 15 -4 15 -2 0
-6 -7 -10 -15z"/>
<path d="M442 424 c10 -10 20 -16 22 -13 3 3 -5 11 -17 18 -21 13 -21 12 -5
-5z"/>
<path d="M6500 370 c-12 -8 -12 -10 5 -10 68 -2 274 -20 295 -25 23 -6 24 -6
5 6 -11 7 -67 19 -125 26 -129 15 -161 15 -180 3z"/>
<path d="M1682 323 c-12 -26 -37 -72 -57 -101 -19 -30 -30 -52 -23 -50 15 5
111 175 106 189 -2 6 -13 -11 -26 -38z"/>
<path d="M4914 264 c39 -18 72 -32 74 -29 14 14 -14 34 -65 48 -85 24 -87 20
-9 -19z"/>
<path d="M4550 283 c-37 -4 -230 -72 -230 -81 0 -14 105 10 184 43 83 33 113
47 90 43 -5 0 -25 -3 -44 -5z"/>
<path d="M409 208 c-6 -13 -32 -44 -57 -71 l-46 -47 44 17 c49 18 100 59 100
80 0 13 12 17 39 13 13 -1 13 1 2 14 -20 24 -68 20 -82 -6z"/>
<path d="M4997 213 c-12 -12 -7 -22 8 -17 8 4 15 10 15 15 0 11 -14 12 -23 2z"/>
<path d="M2222 202 c-23 -7 -12 -24 12 -18 14 3 28 2 31 -4 3 -5 15 -10 26
-10 21 0 25 -2 106 -44 54 -28 77 -23 40 9 -23 20 -195 74 -215 67z"/>
<path d="M4899 166 c-18 -31 -24 -34 -63 -33 -34 2 -50 -4 -83 -31 -36 -28
-41 -37 -40 -68 l2 -35 85 3 85 3 -3 39 c-4 35 1 43 50 93 29 30 46 51 37 48
-10 -4 -20 -2 -24 4 -11 19 -25 12 -46 -23z m-69 -131 c0 -8 -7 -15 -15 -15
-26 0 -18 20 13 29 1 1 2 -6 2 -14z"/>
<path d="M7180 175 c-52 -29 -93 -45 -119 -45 -29 0 -117 -21 -171 -40 -19 -7
-41 -15 -49 -17 -8 -2 -11 -6 -8 -9 3 -3 29 2 57 10 29 9 56 13 60 11 5 -3 37
-9 71 -14 75 -10 116 4 143 51 11 17 29 31 47 35 32 6 38 18 13 27 -19 7 -14
8 -44 -9z"/>
<path d="M495 170 c-3 -5 0 -10 7 -10 7 0 24 -3 38 -6 24 -5 24 -5 6 10 -23
18 -42 20 -51 6z"/>
<path d="M6012 155 c6 -14 15 -25 20 -25 5 0 1 11 -8 25 -9 14 -18 25 -20 25
-2 0 2 -11 8 -25z"/>
<path d="M6767 155 c-27 -7 -52 -17 -55 -21 -10 -10 67 5 103 21 38 17 14 17
-48 0z"/>
<path d="M494 116 c1 -21 5 -23 49 -19 42 3 48 1 56 -20 16 -41 30 -45 161
-44 112 1 129 13 23 16 -28 1 -61 12 -102 37 -45 27 -73 36 -114 39 -30 1 -59
5 -65 9 -6 3 -9 -4 -8 -18z"/>
<path d="M6395 130 c3 -5 8 -10 11 -10 2 0 4 5 4 10 0 6 -5 10 -11 10 -5 0 -7
-4 -4 -10z"/>
<path d="M2169 110 c13 -11 28 -20 35 -20 6 1 0 10 -13 20 -13 11 -28 20 -35
20 -6 -1 0 -10 13 -20z"/>
<path d="M6580 120 l-75 -6 80 -1 c44 -1 89 2 100 7 18 8 18 8 -5 7 -14 0 -59
-3 -100 -7z"/>
<path d="M2774 101 c21 -23 26 -26 26 -11 0 5 -10 15 -22 21 -23 12 -23 12 -4
-10z"/>
<path d="M3230 79 c-66 -20 -144 -21 -360 -4 -52 5 -61 3 -46 -6 36 -22 91
-29 243 -29 134 -1 155 1 189 19 21 12 44 21 51 21 6 0 15 5 18 10 9 15 -22
11 -95 -11z"/>
<path d="M425 50 c-3 -6 1 -7 9 -4 18 7 21 14 7 14 -6 0 -13 -4 -16 -10z"/>
<path d="M4010 51 c0 -5 5 -13 10 -16 6 -3 10 -2 10 4 0 5 -4 13 -10 16 -5 3
-10 2 -10 -4z"/>
<path d="M6035 50 c3 -5 11 -10 16 -10 6 0 7 5 4 10 -3 6 -11 10 -16 10 -6 0
-7 -4 -4 -10z"/>
<path d="M7416 44 c-4 -11 0 -15 16 -12 12 2 23 9 26 16 6 18 -35 15 -42 -4z"/>
<path d="M5518 43 c6 -2 18 -2 25 0 6 3 1 5 -13 5 -14 0 -19 -2 -12 -5z"/>
<path d="M6648 43 c-48 -3 -78 -8 -78 -15 0 -13 132 -4 171 11 20 8 20 9 4 8
-11 0 -55 -3 -97 -4z"/>
<path d="M968 32 c-10 -2 -18 -7 -18 -12 0 -5 32 -8 70 -7 80 2 93 22 15 22
-27 0 -58 -1 -67 -3z"/>
<path d="M1306 26 c7 -18 13 -20 34 -6 9 6 10 10 3 10 -6 0 -19 3 -27 6 -12 5
-15 2 -10 -10z"/>
<path d="M388 23 c7 -3 16 -2 19 1 4 3 -2 6 -13 5 -11 0 -14 -3 -6 -6z"/>
<path d="M908 23 c6 -2 18 -2 25 0 6 3 1 5 -13 5 -14 0 -19 -2 -12 -5z"/>
<path d="M5040 15 l-25 -14 31 -1 c17 0 37 7 44 15 10 12 9 15 -6 15 -11 -1
-30 -7 -44 -15z"/>
<path d="M5214 15 c-18 -14 -18 -14 9 -15 17 0 27 5 27 15 0 19 -11 19 -36 0z"/>
<path d="M5880 20 c-12 -8 -11 -10 7 -10 12 0 25 5 28 10 8 13 -15 13 -35 0z"/>
<path d="M7308 23 c7 -3 16 -2 19 1 4 3 -2 6 -13 5 -11 0 -14 -3 -6 -6z"/>
<path d="M5280 10 c-12 -8 -9 -10 12 -10 15 0 30 5 33 10 8 13 -25 13 -45 0z"/>
<path d="M7253 13 c9 -2 23 -2 30 0 6 3 -1 5 -18 5 -16 0 -22 -2 -12 -5z"/>
<path d="M6238 3 c6 -2 18 -2 25 0 6 3 1 5 -13 5 -14 0 -19 -2 -12 -5z"/>
</g>
</svg>
